REM Ripping Tool: trurip

FILE "Gain Ground SX (1992)(NEC Avenue)(JP).img" BINARY
  TRACK 01 AUDIO
    INDEX 01 00:00:00
  TRACK 02 MODE1/2352
    INDEX 00 00:44:65
    INDEX 01 00:47:65
  TRACK 03 AUDIO
    INDEX 00 04:46:22
    INDEX 01 04:48:22
  TRACK 04 AUDIO
    INDEX 01 09:12:54
  TRACK 05 AUDIO
    INDEX 01 09:21:09
  TRACK 06 AUDIO
    INDEX 01 13:57:00
  TRACK 07 AUDIO
    INDEX 01 18:14:16
  TRACK 08 AUDIO
    INDEX 01 18:22:46
  TRACK 09 AUDIO
    INDEX 01 22:38:33
  TRACK 10 AUDIO
    INDEX 01 24:04:04

REM DISC HASHES
REM CRC32 : 1a1d7ce5
REM MD5   : 8e01a68e95ad3c9c6010aae5cf828694
REM SHA1  : e25a5095098ee1d8be3ba75d9ee6dcc2b7172e53

REM Gap Append Method: Prev [crc32]
REM Trk 01: ccd25d2f
REM Trk 02: b7624670
REM Trk 03: b948aa03
REM Trk 04: 55255475
REM Trk 05: 9b1374a2
REM Trk 06: 5d4d9481
REM Trk 07: 55255475
REM Trk 08: b5495166
REM Trk 09: 2abf1bf0
REM Trk 10: 3004f130

REM Gap Append Method: Prev [md5]
REM Trk 01: 7938d9aa88f644b60389fa8246f2052e
REM Trk 02: 9bb78c5e4141940c248da8ac89b73d6b
REM Trk 03: 179dda3aa14e2c39ee23baad5de4d158
REM Trk 04: 1259298808ae92dd267330e738411037
REM Trk 05: 8c47ac36ca1e631756e15bbd9c9e65f5
REM Trk 06: e91b75e707e2423a6f46f86380c2774c
REM Trk 07: 1259298808ae92dd267330e738411037
REM Trk 08: fe23613d5f4420d5321b7928e65d0bd4
REM Trk 09: 78d5c1270f5dbc7d3975a425274c59ee
REM Trk 10: 50e564dd002e3e32b8b21dd03b31fde6

REM Gap Append Method: Prev [sha1]
REM Trk 01: 0fc7f8840f23f43ebfb7041f71427c165f368105
REM Trk 02: 9ad2eaa774d8e6becff5b42ccf7adbd8b613f65b
REM Trk 03: 12884f68c93d28e8bb8080dd2fa9c62b059b9b17
REM Trk 04: 673c149fad1b868fd27caba85ded784674447c69
REM Trk 05: 8ce4235b9aa80b75bd95ed0df6a4dd86ec69359f
REM Trk 06: 990edbe23364c6226d8d75c1178b61bde00813c1
REM Trk 07: 673c149fad1b868fd27caba85ded784674447c69
REM Trk 08: 8cc3f2b7a1a79a8bb2caf9afc396b9f66f690e81
REM Trk 09: b6b34656022b9cf708c79602c416e5d65eced599
REM Trk 10: 1f44640a6d1d46bb2b7bc9d3b197ff7a990b5051

REM Gap Append Method: None [crc32]
REM Trk 01: b979500c
REM Trk 02: aef09dd5
REM Trk 03: b948aa03
REM Trk 04: 55255475
REM Trk 05: 9b1374a2
REM Trk 06: 5d4d9481
REM Trk 07: 55255475
REM Trk 08: b5495166
REM Trk 09: 2abf1bf0
REM Trk 10: 3004f130
REM Gap 02: 16e86594
REM Gap 03: 7abe247f

REM Gap Append Method: None [md5]
REM Trk 01: a25a2c129b7100092cc40e9b6e176a63
REM Trk 02: 5f698729e5ee670dee4602401749649b
REM Trk 03: 179dda3aa14e2c39ee23baad5de4d158
REM Trk 04: 1259298808ae92dd267330e738411037
REM Trk 05: 8c47ac36ca1e631756e15bbd9c9e65f5
REM Trk 06: e91b75e707e2423a6f46f86380c2774c
REM Trk 07: 1259298808ae92dd267330e738411037
REM Trk 08: fe23613d5f4420d5321b7928e65d0bd4
REM Trk 09: 78d5c1270f5dbc7d3975a425274c59ee
REM Trk 10: 50e564dd002e3e32b8b21dd03b31fde6
REM Gap 02: fbd314ec9876f082e173fbb5baf092aa
REM Gap 03: 9df204fbc98bb8965081cb30a89715fc

REM Gap Append Method: None [sha1]
REM Trk 01: 9ac3f1a11d434d186466917f1c7955bf7670c910
REM Trk 02: 665398002d4d68b584c4778df19b1a25348db692
REM Trk 03: 12884f68c93d28e8bb8080dd2fa9c62b059b9b17
REM Trk 04: 673c149fad1b868fd27caba85ded784674447c69
REM Trk 05: 8ce4235b9aa80b75bd95ed0df6a4dd86ec69359f
REM Trk 06: 990edbe23364c6226d8d75c1178b61bde00813c1
REM Trk 07: 673c149fad1b868fd27caba85ded784674447c69
REM Trk 08: 8cc3f2b7a1a79a8bb2caf9afc396b9f66f690e81
REM Trk 09: b6b34656022b9cf708c79602c416e5d65eced599
REM Trk 10: 1f44640a6d1d46bb2b7bc9d3b197ff7a990b5051
REM Gap 02: 08a9af7bae10b281a8edaad6e9ea6cd1646d0ce0
REM Gap 03: cbe29e0bd725ef1194f8c47619dd42078e841de2

REM Gap Append Method: Next [crc32]
REM Trk 01: b979500c
REM Trk 02: af295c84
REM Trk 03: 9c3e904e
REM Trk 04: 55255475
REM Trk 05: 9b1374a2
REM Trk 06: 5d4d9481
REM Trk 07: 55255475
REM Trk 08: b5495166
REM Trk 09: 2abf1bf0
REM Trk 10: 3004f130

REM Gap Append Method: Next [md5]
REM Trk 01: a25a2c129b7100092cc40e9b6e176a63
REM Trk 02: 4a9abcbe1da8637756447fdf975dd057
REM Trk 03: 4bf941a91384d77ecda30f6beea4b1bf
REM Trk 04: 1259298808ae92dd267330e738411037
REM Trk 05: 8c47ac36ca1e631756e15bbd9c9e65f5
REM Trk 06: e91b75e707e2423a6f46f86380c2774c
REM Trk 07: 1259298808ae92dd267330e738411037
REM Trk 08: fe23613d5f4420d5321b7928e65d0bd4
REM Trk 09: 78d5c1270f5dbc7d3975a425274c59ee
REM Trk 10: 50e564dd002e3e32b8b21dd03b31fde6

REM Gap Append Method: Next [sha1]
REM Trk 01: 9ac3f1a11d434d186466917f1c7955bf7670c910
REM Trk 02: 8da71eef02bd50bc25a4345bdd16e576a5266dcd
REM Trk 03: 347b1a793df9e3aebde29be4b52a34ac789b75bb
REM Trk 04: 673c149fad1b868fd27caba85ded784674447c69
REM Trk 05: 8ce4235b9aa80b75bd95ed0df6a4dd86ec69359f
REM Trk 06: 990edbe23364c6226d8d75c1178b61bde00813c1
REM Trk 07: 673c149fad1b868fd27caba85ded784674447c69
REM Trk 08: 8cc3f2b7a1a79a8bb2caf9afc396b9f66f690e81
REM Trk 09: b6b34656022b9cf708c79602c416e5d65eced599
REM Trk 10: 1f44640a6d1d46bb2b7bc9d3b197ff7a990b5051

